<?xml version="1.0"?><svg width="300" height="300" xmlns="http://www.w3.org/2000/svg">
 <g>
  <title>Layer 1</title>
  <g id="Layer_1">
   <g id="svg_1">
    <g id="surface0">
     <path id="svg_2" d="m73.400002,9.509c0.417999,-0.117 1.252998,-0.351 1.670998,-0.467999c-1.797997,5.469999 -4.289001,10.688999 -6.060997,16.164c-2.069,12.586 -1.740005,26.518 5.285995,37.601c6.524002,8.866997 17.555,12.107002 26.916,16.987c4.889999,2.723999 10.549004,6.119003 11.619003,12.112c0.044998,3.487999 -1.552002,7.333 -4.841003,8.93c-6.711998,4.300003 -15.053001,0.987999 -21.270996,-2.657997c-7.584,-4.862999 -15.066002,-10.341003 -20.301003,-17.800003c-9.375,-14.324997 -10.321999,-32.768997 -5.703999,-48.917c2.687,-8.047998 6.349003,-16.103999 12.686001,-21.950999z" stroke-miterlimit="10" stroke-width="0.1" stroke="#000000" fill="none"/>
     <path id="svg_3" d="m73.400002,9.509c0.417999,-0.117 1.252998,-0.351 1.670998,-0.467999c-1.797997,5.469999 -4.289001,10.688999 -6.060997,16.164c-2.069,12.586 -1.740005,26.518 5.285995,37.601c6.524002,8.866997 17.555,12.107002 26.916,16.987c4.889999,2.723999 10.549004,6.119003 11.619003,12.112c0.044998,3.487999 -1.552002,7.333 -4.841003,8.93c-6.711998,4.300003 -15.053001,0.987999 -21.270996,-2.657997c-7.584,-4.862999 -15.066002,-10.341003 -20.301003,-17.800003c-9.375,-14.324997 -10.321999,-32.768997 -5.703999,-48.917c2.687,-8.047998 6.349003,-16.103999 12.686001,-21.950999z"/>
     <path id="svg_4" d="m147.595993,56.886002c7.235992,-0.683002 14.889999,2.283997 19.427994,8.042999c3.208008,3.590996 4.593002,8.391998 5.132996,13.082001c-0.232986,7.189995 -3.873993,14.214996 -9.904999,18.223999c-5.97699,3.82 -13.772995,4.862999 -20.394989,2.125c-11.093002,-3.828003 -17.619003,-18.020004 -12.053009,-28.667c3.072021,-7.131001 10.182007,-11.882999 17.792007,-12.806999z" stroke-miterlimit="10" stroke-width="0.1" stroke="#000000" fill="none"/>
     <path id="svg_5" d="m147.595993,56.886002c7.235992,-0.683002 14.889999,2.283997 19.427994,8.042999c3.208008,3.590996 4.593002,8.391998 5.132996,13.082001c-0.232986,7.189995 -3.873993,14.214996 -9.904999,18.223999c-5.97699,3.82 -13.772995,4.862999 -20.394989,2.125c-11.093002,-3.828003 -17.619003,-18.020004 -12.053009,-28.667c3.072021,-7.131001 10.182007,-11.882999 17.792007,-12.806999z"/>
     <path id="svg_6" d="m152.748001,115.709999c6.483002,-3.776001 14.526993,-3.5 21.434006,-1.066002c12.639999,4.225006 24.491989,11.106003 37.888,12.854004c10.50499,1.231003 21.003998,2.554993 31.533997,3.556c0.019989,-4.084 0.003998,-8.168999 0.046997,-12.251999c4.416,4.171997 8.807999,8.382996 13.449005,12.306992c1.028992,1.014008 2.595001,0.602005 3.886993,0.739014c13.003998,-0.058014 26.009003,-0.013 39.014008,-0.027008l0,3c-13.960999,0.104004 -27.938995,-0.203003 -41.889008,0.143997c-5.018005,3.958008 -9.233994,8.869003 -14.209,12.900009c-0.274994,-4.024002 -0.326004,-8.056 -0.302994,-12.085999c-11.130005,1.478989 -22.320007,2.940994 -33.574005,2.630997c-12.460007,-0.315002 -24.917007,-1.184998 -37.274994,-2.768005c-7.824005,-1.634003 -17.279007,-3.360001 -21.472,-11.043999c-1.847,-2.763 -1.710007,-7.164001 1.468994,-8.888z" stroke-miterlimit="10" stroke-width="0.1" stroke="#000000" fill="none"/>
     <path id="svg_7" d="m152.748001,115.709999c6.483002,-3.776001 14.526993,-3.5 21.434006,-1.066002c12.639999,4.225006 24.491989,11.106003 37.888,12.854004c10.50499,1.231003 21.003998,2.554993 31.533997,3.556c0.019989,-4.084 0.003998,-8.168999 0.046997,-12.251999c4.416,4.171997 8.807999,8.382996 13.449005,12.306992c1.028992,1.014008 2.595001,0.602005 3.886993,0.739014c13.003998,-0.058014 26.009003,-0.013 39.014008,-0.027008l0,3c-13.960999,0.104004 -27.938995,-0.203003 -41.889008,0.143997c-5.018005,3.958008 -9.233994,8.869003 -14.209,12.900009c-0.274994,-4.024002 -0.326004,-8.056 -0.302994,-12.085999c-11.130005,1.478989 -22.320007,2.940994 -33.574005,2.630997c-12.460007,-0.315002 -24.917007,-1.184998 -37.274994,-2.768005c-7.824005,-1.634003 -17.279007,-3.360001 -21.472,-11.043999c-1.847,-2.763 -1.710007,-7.164001 1.468994,-8.888z"/>
     <path id="svg_8" d="m81.049004,161.104004c3.376999,-3.609009 8.699997,-4.082001 13.353996,-3.76001c5.808998,3.825012 7.727997,11.085007 7.252998,17.69101c-0.750999,12.694992 -3.840996,25.110001 -6.845001,37.423996c-3.076996,12.449005 -8.281998,24.373993 -15.510994,34.973007c-14.437004,19.934998 -35.167004,36.218994 -59.384993,41.996002c-0.610001,-0.098999 -1.83,-0.295013 -2.440001,-0.393005c9.68099,-6.588989 19.604992,-13.244019 27.212002,-22.292999c7.769997,-8.856995 14.765987,-18.473999 20.159988,-28.971008c3.084999,-5.83699 5.866013,-12.014999 6.652,-18.634003c1.286003,-13.498993 0.741997,-27.115997 2.372002,-40.58699c0.856995,-6.257004 2.478996,-12.902008 7.178001,-17.445999z" stroke-miterlimit="10" stroke-width="0.1" stroke="#000000" fill="none"/>
     <path id="svg_9" d="m81.049004,161.104004c3.376999,-3.609009 8.699997,-4.082001 13.353996,-3.76001c5.808998,3.825012 7.727997,11.085007 7.252998,17.69101c-0.750999,12.694992 -3.840996,25.110001 -6.845001,37.423996c-3.076996,12.449005 -8.281998,24.373993 -15.510994,34.973007c-14.437004,19.934998 -35.167004,36.218994 -59.384993,41.996002c-0.610001,-0.098999 -1.83,-0.295013 -2.440001,-0.393005c9.68099,-6.588989 19.604992,-13.244019 27.212002,-22.292999c7.769997,-8.856995 14.765987,-18.473999 20.159988,-28.971008c3.084999,-5.83699 5.866013,-12.014999 6.652,-18.634003c1.286003,-13.498993 0.741997,-27.115997 2.372002,-40.58699c0.856995,-6.257004 2.478996,-12.902008 7.178001,-17.445999z"/>
     <path id="svg_10" d="m107.476997,166.529007c4.677002,-3.337997 10.660004,-2.085999 15.772003,-0.632996c5.877007,1.664001 10.743996,5.559998 15.140007,9.651001c8.871994,8.251999 15.838989,18.781998 18.928986,30.567001c1.442001,5.265991 1.057007,11.015991 -1.238998,15.983002c-2.618988,4.543991 -6.757996,7.917999 -10.826996,11.110001c-6.750992,5.237991 -14.315994,9.268997 -21.867996,13.209c-9.926003,5.536987 -20.870003,8.856995 -31.589005,12.449982c-0.384995,-0.151001 -1.154999,-0.451996 -1.540001,-0.603973c13.317001,-11.366013 27.834,-21.384018 40.032997,-34.021011c2.875,-3.125 6.035004,-6.237 7.464005,-10.339996c-1.244003,-6.973007 -7.938004,-10.463013 -12.778,-14.757004c-7.733002,-6.026001 -16.659996,-11.820999 -20.451996,-21.294006c-0.857002,-3.832001 -0.133003,-8.600006 2.954994,-11.320999z" stroke-miterlimit="10" stroke-width="0.1" stroke="#000000" fill="none"/>
     <path id="svg_11" d="m107.476997,166.529007c4.677002,-3.337997 10.660004,-2.085999 15.772003,-0.632996c5.877007,1.664001 10.743996,5.559998 15.140007,9.651001c8.871994,8.251999 15.838989,18.781998 18.928986,30.567001c1.442001,5.265991 1.057007,11.015991 -1.238998,15.983002c-2.618988,4.543991 -6.757996,7.917999 -10.826996,11.110001c-6.750992,5.237991 -14.315994,9.268997 -21.867996,13.209c-9.926003,5.536987 -20.870003,8.856995 -31.589005,12.449982c-0.384995,-0.151001 -1.154999,-0.451996 -1.540001,-0.603973c13.317001,-11.366013 27.834,-21.384018 40.032997,-34.021011c2.875,-3.125 6.035004,-6.237 7.464005,-10.339996c-1.244003,-6.973007 -7.938004,-10.463013 -12.778,-14.757004c-7.733002,-6.026001 -16.659996,-11.820999 -20.451996,-21.294006c-0.857002,-3.832001 -0.133003,-8.600006 2.954994,-11.320999z"/>
    </g>
   </g>
  </g>
 </g>
</svg>